name Walk1.mot
datacolumns 19
datarows 20
range 1.21000000 1.30500000
endheader

                time	   L_ground_force_vx	   L_ground_force_vy	   L_ground_force_vz	   L_ground_force_px	   L_ground_force_py	   L_ground_force_pz	   R_ground_force_vx	   R_ground_force_vy	   R_ground_force_vz	   R_ground_force_px	   R_ground_force_py	   R_ground_force_pz	   L_ground_torque_x	   L_ground_torque_y	   L_ground_torque_z	   R_ground_torque_x	   R_ground_torque_y	   R_ground_torque_z	
          1.21000000	         18.70341241	        714.34306105	         33.76767373	         -0.18684419	          0.00000000	         -0.04420245	         -0.00143918	          0.16640610	          0.00258169	          0.00025777	          0.00000000	          0.00006820	          0.00000000	         -0.37938984	          0.00000000	          0.00000000	          0.00010264	          0.00000000	
          1.21500000	         21.22346401	        720.59338923	         34.26125822	         -0.18519993	          0.00000000	         -0.04405961	         -0.00549410	          0.22534761	          0.00392748	          0.00032266	          0.00000000	          0.00008472	          0.00000000	         -0.45438345	          0.00000000	          0.00000000	          0.00071447	          0.00000000	
          1.22000000	         23.82679798	        727.23060723	         34.70168618	         -0.18362970	          0.00000000	         -0.04388029	         -0.01113969	          0.28946811	          0.00554172	          0.00038406	          0.00000000	          0.00010002	          0.00000000	         -0.52113588	          0.00000000	          0.00000000	          0.00158043	          0.00000000	
          1.22500000	         26.52593836	        734.22513763	         35.05549691	         -0.18213637	          0.00000000	         -0.04366495	         -0.01856947	          0.35375677	          0.00737548	          0.00043244	          0.00000000	          0.00011156	          0.00000000	         -0.58338094	          0.00000000	          0.00000000	          0.00273588	          0.00000000	
          1.23000000	         29.33825292	        741.54045453	         35.29617114	         -0.18072104	          0.00000000	         -0.04341671	         -0.02786518	          0.41037906	          0.00932541	          0.00045455	          0.00000000	          0.00011579	          0.00000000	         -0.64475555	          0.00000000	          0.00000000	          0.00420026	          0.00000000	
          1.23500000	         32.28508795	        749.13427397	         35.40741908	         -0.17938412	          0.00000000	         -0.04314058	         -0.03892416	          0.44806344	          0.01121599	          0.00043296	          0.00000000	          0.00010811	          0.00000000	         -0.70831538	          0.00000000	          0.00000000	          0.00596576	          0.00000000	
          1.24000000	         35.38730560	        756.95909464	         35.38431912	         -0.17812664	          0.00000000	         -0.04284132	         -0.05136887	          0.45156891	          0.01278089	          0.00034591	          0.00000000	          0.00008280	          0.00000000	         -0.77659308	          0.00000000	          0.00000000	          0.00798311	          0.00000000	
          1.24500000	         38.66089144	        764.96600632	         35.23319035	         -0.17694878	          0.00000000	         -0.04252295	         -0.06443967	          0.40134413	          0.01364491	          0.00016750	          0.00000000	          0.00003312	          0.00000000	         -0.85099326	          0.00000000	          0.00000000	          0.01014438	          0.00000000	
          1.25000000	         42.11583786	        773.10587988	         34.97028215	         -0.17584971	          0.00000000	         -0.04219019	         -0.07687480	          0.27352763	          0.01330946	         -0.00013137	          0.00000000	         -0.00004844	          0.00000000	         -0.93215987	          0.00000000	          0.00000000	          0.01226353	          0.00000000	
          1.25500000	         45.75628695	        781.32940633	         34.62058766	         -0.17482846	          0.00000000	         -0.04184925	         -0.08678506	          0.04047954	          0.01114492	         -0.00058121	          0.00000000	         -0.00016964	          0.00000000	         -1.01912914	          0.00000000	          0.00000000	          0.01405566	          0.00000000	
          1.26000000	         49.58216090	        789.58111835	         34.21480947	         -0.17388326	          0.00000000	         -0.04150706	         -0.09153588	         -0.32792320	          0.00639510	         -0.00121101	          0.00000000	         -0.00033772	          0.00000000	         -1.10954211	          0.00000000	          0.00000000	          0.01511680	          0.00000000	
          1.26500000	         53.59005738	        797.79492482	         33.78668043	         -0.17301116	          0.00000000	         -0.04117056	         -0.08765528	         -0.86196081	         -0.00180036	         -0.00204375	          0.00000000	         -0.00055818	          0.00000000	         -1.20017985	          0.00000000	          0.00000000	          0.01490721	          0.00000000	
          1.27000000	         57.77493147	        805.89804210	         33.37049176	         -0.17220845	          0.00000000	         -0.04084463	         -0.07079359	         -1.58842425	         -0.01435816	         -0.00309027	          0.00000000	         -0.00083311	          0.00000000	         -1.28769124	          0.00000000	          0.00000000	          0.01274189	          0.00000000	
          1.27500000	         62.13067281	        813.81233265	         32.99828466	         -0.17147094	          0.00000000	         -0.04053195	         -0.03576897	         -2.52535928	         -0.03216978	         -0.00434106	          0.00000000	         -0.00115909	          0.00000000	         -1.36926252	          0.00000000	          0.00000000	          0.00779391	          0.00000000	
          1.28000000	         66.64832420	        821.45563931	         32.69822743	         -0.17079309	          0.00000000	         -0.04023355	          0.02325902	         -3.67494905	         -0.05597741	         -0.00575615	          0.00000000	         -0.00152446	          0.00000000	         -1.44221038	          0.00000000	          0.00000000	         -0.00088308	          0.00000000	
          1.28500000	         71.31403143	        828.74271683	         32.49309039	         -0.17016810	          0.00000000	         -0.03995061	          0.11243759	         -5.01437161	         -0.08619898	         -0.00725291	          0.00000000	         -0.00190621	          0.00000000	         -1.50401014	          0.00000000	          0.00000000	         -0.01430490	          0.00000000	
          1.29000000	         76.10840730	        835.58913898	         32.40003689	         -0.16958804	          0.00000000	         -0.03968535	          0.23763412	         -6.48462714	         -0.12269511	         -0.00869245	          0.00000000	         -0.00226641	          0.00000000	         -1.55183742	          0.00000000	          0.00000000	         -0.03347041	          0.00000000	
          1.29500000	         81.00813522	        841.91232353	         32.43058113	         -0.16904383	          0.00000000	         -0.03943859	          0.40355610	         -7.97757717	         -0.16447469	         -0.00986521	          0.00000000	         -0.00254859	          0.00000000	         -1.58317850	          0.00000000	          0.00000000	         -0.05922888	          0.00000000	
          1.30000000	         85.98634867	        847.63012136	         32.59012568	         -0.16852591	          0.00000000	         -0.03921021	          0.61252167	         -9.32179387	         -0.20934057	         -0.01047733	          0.00000000	         -0.00267431	          0.00000000	         -1.59592423	          0.00000000	          0.00000000	         -0.09209153	          0.00000000	
          1.30500000	         91.01386586	        852.66170786	         32.87824112	         -0.16802482	          0.00000000	         -0.03900109	          0.86283721	        -10.26829918	         -0.25348594	         -0.01013971	          0.00000000	         -0.00254052	          0.00000000	         -1.58820100	          0.00000000	          0.00000000	         -0.13197940	          0.00000000	
